<svg xmlns="http://www.w3.org/2000/svg" viewBox="0 0 40 40">
<circle cx="20" cy="20" r="20" fill="none" stroke="#ffffff" stroke-miterlimit="1" stroke-width=".15"/>
 <path d="m10.87,4.47l.63,1.43c.64,1.48,1.13,2.58,1.91,4.38,2.74-1.52,4.26-2.05,7.36-2.57l-.71-1.63c-1.97.33-2.98.61-4.86,1.38h-.02c-.61.26-.91.39-1.5.68l-.12.05.09-.09c.49-.52.74-.78,1.26-1.26l-1.55-3.56c-1.03.42-1.52.65-2.48,1.18Z" fill="none" stroke="#ffffff" stroke-miterlimit="1" stroke-width=".15"/>
  <path d="m23.63,5.27c-.6-1.38-.89-2.05-1.53-3.5-1.13-.07-1.71-.07-2.84.02,1.02,2.33,1.5,3.44,2.52,5.77,1.39-.17,2.47-.25,3.53-.23,1.38.03,2.68.23,4.46.64l-.68-1.54c-2.11-.48-3.18-.6-5.22-.63h-.02c-.6,0-.89,0-1.49.03h-.13s.11-.05.11-.05c.52-.23.77-.34,1.28-.52Z" fill="none" stroke="#ffffff" stroke-miterlimit="1" stroke-width=".15"/>
  <path d="m9.8,12.18c.16.11.25.16.42.27.91-.77,1.42-1.11,2.47-1.75-2.31-1.54-3.45-2.27-5.59-3.51-1.1,1.05-1.6,1.67-2.54,2.97.02.6.04,1.13.05,1.64.08,2.51.13,4.18.34,7.18.57-.96.88-1.46,1.57-2.44-.02-.56-.04-.85-.06-1.4h0s0-.02,0-.02c1.05-1.41,1.61-2.08,2.89-3.23h0c.48-.44.71-.63,1.2-.99l.11-.09-.08.12c-.33.47-.49.71-.79,1.24Zm-1.71-1.06c-.56.56-.82.86-1.37,1.53-.12.14-.18.22-.3.38-.42.53-.63.81-1.03,1.41l-.11.16.07-.18c.39-1.05.6-1.53,1.01-2.48-.02-.72-.02-1.09-.04-1.86v-.04l.04.02c.68.4,1.03.61,1.73,1.05l.02.02h-.02Z" fill="none" stroke="#ffffff" stroke-miterlimit="1" stroke-width=".15"/>
  <path d="m21.77,36.96c.52-.77.18-1.68,0-2.04l-.11-.23c-.57-1.21-1.93-2.05-6.73-2.29-1.8-.09-2.73-.23-4.42-.58.54,1.14.88,1.96,1.23,2.76.34.8.6,1.53,1.15,2.68,1.59.46,2.83.62,4.64.75,2.19.17,3.66-.19,4.23-1.03Zm-2.96-.9c-.23.34-.81.5-1.7.49-.2,0-.41-.02-.63-.03-.28-.02-.42-.04-.71-.07-.19-.02-.28-.03-.47-.05-.71-.09-1.07-.14-1.83-.27l-.14-.02.14-.02c.62-.09.93-.15,1.55-.28-.13-.29-.23-.53-.34-.76-.18-.41-.34-.76-.57-1.28l-.02-.04h.04c.47.06.69.08,1.16.11,1.27.09,3.01.32,3.5,1.35l.02.05c.09.23.18.57,0,.85Z" fill="none" stroke="#ffffff" stroke-miterlimit="1" stroke-width=".15"/>
  <path d="m33.21,26.9v.02h-.02c-.96-.1-1.46-.19-2.45-.39-.98.9-1.52,1.34-2.61,2.08,1.95.51,2.94.74,4.78.96h.02v.02c.41.84.61,1.27,1.02,2.12.8-.86,1.16-1.32,1.82-2.25-.32-.68-.49-1.02-.79-1.66-.28.38-.42.57-.72.93l-.11.13.07-.16c.23-.52.34-.79.56-1.33h0s.04-.33.04-.33c.31-2.49.45-3.76.55-6.49-.58,1.1-.92,1.63-1.66,2.65-.16,1.53-.27,2.26-.49,3.7Z" fill="none" stroke="#ffffff" stroke-miterlimit="1" stroke-width=".15"/>
  <path d="m29.93,34.34c.13.09.21.14.31.21l.13.09c1.06-.69,1.54-1.03,2.44-1.85-2.2-1.23-3.36-1.91-5.83-3.46-1.28.77-1.99,1.11-3.39,1.66-.26,2.74-.41,4.11-.77,6.77,1.1-.22,1.65-.38,2.72-.76.04-.44.05-.67.09-1.11v-.02h.02c1.36-.52,2.04-.85,3.3-1.57h0l.02-.02c.74-.43,1.1-.66,1.79-1.15l.11-.08-.08.11c-.34.5-.51.73-.86,1.17Zm-1.93-1.26c-.86.48-1.29.69-2.21,1.07l-.05.02h0c-.58.24-.88.36-1.5.56l-.12.04.09-.08c.67-.56.98-.85,1.61-1.47.04-.63.06-.94.1-1.59v-.04l.03.02c.81.56,1.21.85,2.04,1.41l.03.02-.03.02Z" fill="none" stroke="#ffffff" stroke-miterlimit="1" stroke-width=".15"/>
  <path d="m2.24,14.65S.04,20.04,2.84,27.01c0,0,.45-3.16.96-5.62,0,0-.8,1.71-1.27,3.33,0,0-1.51-3.95-.29-10.06Z" fill="none" stroke="#ffffff" stroke-miterlimit="1" stroke-width=".15"/>
  <path d="m2.84,27.01s0,0,0,0c0,.02,2.26,6.01,7.3,8.72,0,0-3.63-2.44-5.54-6.08,0,0,1.64.65,2.53.75,0,0-3.08-1.53-4.29-3.4Z" fill="none" stroke="#ffffff" stroke-miterlimit="1" stroke-width=".15"/>
  <path d="m28.84,3.23s5.4,2.67,8.36,9.56c0,0-2.57-2.31-4.68-3.7.03.02,3.14,1.66,3.09,1.64,0,0-1.42-3.27-6.77-7.5Z" fill="none" stroke="#ffffff" stroke-miterlimit="1" stroke-width=".15"/>
  <path d="m37.2,12.8h0s2.65,5.82.89,11.72c0,0,.92-5.14-.31-8.83,0,0-.84,2-1.46,2.94,0,0,1.35-3.67.88-5.83Z" fill="none" stroke="#ffffff" stroke-miterlimit="1" stroke-width=".15"/>
	 <path d="m25.01,14.15c-.46.34-1.35.79-2.5.51-1.98-.49-2.55-2.2-2.55-2.2,0,0-.56,1.71-2.55,2.2-1.14.28-2.04-.17-2.5-.51h-.36v9.21c0,.23.05.69.44,1.15.47.56,1.26.93,2.35,1.1.87.13,1.52.4,1.97.84.34.32.65.88.65.88,0,0,.33-.57.65-.88.45-.44,1.1-.71,1.97-.84,1.1-.16,1.89-.52,2.35-1.1.38-.46.43-.92.44-1.15v-9.21h-.36Zm.03,9.21c0,.3-.13,1.58-2.51,1.93-.94.13-1.64.44-2.15.92-.18.17-.32.35-.42.52-.1-.16-.24-.34-.42-.52-.5-.49-1.21-.79-2.15-.92-2.38-.34-2.51-1.62-2.51-1.93v-8.85s1.08.85,2.61.46c1.78-.45,2.47-1.78,2.47-1.78,0,0,.69,1.33,2.47,1.78,1.53.38,2.61-.46,2.61-.46v8.85h-.02Z" fill="none" stroke="#ffffff" stroke-miterlimit="1" stroke-width=".15"/>
  <path d="m24.44,23.36v-4.64h-8.97v4.64s-.06,1.02,2,1.33c1.8.27,2.49,1.13,2.49,1.13,0,0,.69-.85,2.49-1.13,2.06-.31,2-1.28,2-1.33Zm-5.59-3.61l-.27.16v4.49l-.67-.2-.97-2.87v1.9l.31.23v.59l-1.35-.34v-.5l.31-.12v-3.17l-.31-.16v-.57h1.03l.96,2.93v-2.21l-.27-.16v-.57h1.26v.58h0Zm2.59.6h-.51l-.16-.48h-.6v1.35h.45l.17-.26h.36v1.2h-.36l-.16-.24h-.45v2.22l.27.32v.57l-1.34-.5v-.49l.3-.12v-4.01l-.3-.15v-.58h2.33v1.17h0Zm2.58,3.36l-2.36.63v-.57l.33-.27v-3.59l-.28-.15v-.58h1.34v.58l-.27.15v3.36l.58-.16.11-.88h.55v1.47h0Z" fill="none" stroke="#ffffff" stroke-miterlimit="1" stroke-width=".15"/>
  <path d="m15.7,17.78l-.41-.31h.49l.16-.47.16.47h.49l-.41.31.15.48-.4-.28-.4.28.15-.48Z" fill="none" stroke="#ffffff" stroke-miterlimit="1" stroke-width=".15"/>
  <path d="m17.47,17.78l-.41-.31h.49l.16-.47.16.47h.49l-.41.31.15.48-.4-.28-.4.28.15-.48Z" fill="none" stroke="#ffffff" stroke-miterlimit="1" stroke-width=".15"/>
  <path d="m15.7,16.19l-.41-.31h.49l.16-.47.16.47h.49l-.41.31.15.48-.4-.28-.4.28.15-.48Z" fill="none" stroke="#ffffff" stroke-miterlimit="1" stroke-width=".15"/>
  <path d="m17.47,16.19l-.41-.31h.49l.16-.47.16.47h.49l-.41.31.15.48-.4-.28-.4.28.15-.48Z" fill="none" stroke="#ffffff" stroke-miterlimit="1" stroke-width=".15"/>
  <path d="m24.36,18.26l-.4-.28-.4.28.15-.48-.41-.31h.49l.16-.47.16.47h.49l-.41.31.15.48Z" fill="none" stroke="#ffffff" stroke-miterlimit="1" stroke-width=".15"/>
  <path d="m22.6,18.26l-.4-.28-.4.28.15-.48-.41-.31h.49l.16-.47.16.47h.49l-.41.31.15.48Z" fill="none" stroke="#ffffff" stroke-miterlimit="1" stroke-width=".15"/>
  <path d="m24.36,16.67l-.4-.28-.4.28.15-.48-.41-.31h.49l.16-.47.16.47h.49l-.41.31.15.48Z" fill="none" stroke="#ffffff" stroke-miterlimit="1" stroke-width=".15"/>
  <path d="m22.6,16.67l-.4-.28-.4.28.15-.48-.41-.31h.49l.16-.47.16.47h.49l-.41.31.15.48Z" fill="none" stroke="#ffffff" stroke-miterlimit="1" stroke-width=".15"/>
  <path d="m21.15,14.99s-.04-.09-.08-.08c0,0-.21.11-.5.4.06.04.14.09.18.13-.05.04-.09.08-.13.13-.19-.16-.39-.23-.54-.27.05-.04.1-.07.16-.11.09.02.16.05.16.05.33-.25.62-.36.62-.36,0,0-.03-.02-.13-.02-1.3.02-2.51.99-2.28,2.65.02.18.09.5.18.63.03-.27.13-.89.44-1.54-.11-.04-.2-.05-.2-.05.03-.06.08-.15.08-.15.23.04.43.14.6.27-.04.07-.07.11-.09.15-.06-.05-.13-.09-.19-.13-.34.6-.51,1.18-.57,1.48,0,.02.04.03.07.02,1.43-.19,2.1-.92,2.3-1.7.13-.52.09-1.06-.09-1.51Zm-1.31,1.5c-.19-.16-.4-.25-.61-.29,0,0,.06-.11.1-.16.26.05.47.17.62.3-.04.05-.08.11-.11.16Zm.23-.33c-.17-.14-.38-.25-.62-.3.04-.05.08-.09.12-.14.18.03.42.13.62.3-.04.04-.08.09-.12.14Zm.27-.31c-.18-.15-.38-.24-.6-.29.05-.05.1-.09.15-.13.27.06.45.19.57.29-.05.05-.09.09-.13.13Z" fill="none" stroke="#ffffff" stroke-miterlimit="1" stroke-width=".15"/>
  
</svg>