<svg xmlns="http://www.w3.org/2000/svg" viewBox="0 0 2 1.43">
  <path d="M.6,.85s.06,.03,.06,.08c0,.05-.02,.08-.05,.09-.03,0-.06-.03-.06-.08,0-.05,.02-.08,.05-.09Zm.8-.05s.06,.03,.06,.08c0,.05-.02,.08-.05,.09s-.06-.03-.06-.08c0-.05,.02-.08,.05-.09ZM.27,.47s-.01-.03-.02-.05c-.02-.08-.04-.21,.02-.28,.04-.04,.1-.05,.15-.05,.08,0,.17,.04,.24,.08,.08-.03,.17-.05,.26-.06,.01,0,.02,0,.03,0,.02-.03,.04-.05,.07-.07,.05-.04,.12-.06,.18-.04,.04,.01,.07,.05,.09,.09,.05-.03,.11-.06,.17-.07,.06-.01,.11,0,.16,.03,.05,.04,.06,.11,.06,.17,0,0,0,0,0,0,.05,.01,.08,.03,.1,.07,.02,.06,0,.14-.03,.2,0,.01,.01,.02,.02,.04,.02,.06,.04,.12,.04,.18,0,0,0,0,0,0,.05,0,.1,0,.14,.01,0,0,.01,0,.02,.01s0,.01,0,.02h0s0,.01,0,.02c0,0-.01,0-.02,0-.05,0-.1-.01-.15-.01,0,.03,0,.06-.01,.09,0,0,0,.02,0,.03,.04,0,.07,.01,.11,.02,0,0,.01,0,.02,.01s0,.01,0,.02h0s0,.01,0,.01c0,0,0,0-.02,0-.04-.01-.08-.02-.12-.02-.02,.05-.05,.1-.08,.14,.05,.02,.09,.04,.13,.06,0,0,0,0,.01,.02,0,0,0,.01,0,.02h0s0,0-.01,.01c0,0,0,0-.02,0-.04-.03-.09-.05-.14-.06,0,0,0,0-.01,0-.08,.09-.15,.14-.2,.17-.26,.14-.71,.25-1.13-.09,0,0,0,0-.01,0-.05,.02-.09,.05-.13,.08,0,0,0,0-.01,0,0,0,0,0-.01,0H.19s0-.01,0-.02c0,0,0-.01,0-.02,.04-.03,.08-.06,.13-.08-.04-.04-.07-.08-.09-.13-.04,0-.08,.02-.12,.04,0,0-.01,0-.02,0,0,0,0,0,0-.01H.08s0-.01,0-.02c0,0,0-.01,.01-.01,.04-.01,.07-.03,.11-.03,0,0,0-.02-.01-.03-.01-.03-.02-.06-.02-.09-.05,0-.1,.02-.15,.03,0,0-.01,0-.02,0,0,0,0,0,0-.02H0s0-.02,0-.02c0,0,.01-.01,.02-.01,.05-.01,.09-.03,.14-.03,0,0,0,0,0,0,0-.13,.03-.25,.1-.35h0Zm.14,.72s.05-.01,.08-.02c0,0,.01,0,.01,0,0,0,0,0,0-.01H.5s0-.01-.01-.01-.01,0-.02,0c-.03,0-.07,.02-.1,.03-.04-.04-.07-.08-.09-.12,.04,0,.08,0,.12,0,0,0,.01,0,.02,0,0,0,0,0,0-.01H.42s0-.01,0-.02c0,0-.01,0-.02,0-.05,0-.09,0-.14,0-.02-.04-.03-.07-.04-.11,.05,0,.11,0,.17,.01,0,0,.01,0,.02,0,0,0,0,0,0-.02H.41s0-.01,0-.02c0,0-.01-.01-.02-.01-.06-.01-.11-.02-.17-.01,0,0,0,0,0,0,0-.12,.03-.24,.11-.34-.01-.02-.02-.04-.03-.07-.03-.16-.03-.28,.13-.27,.08,0,.17,.05,.24,.09,.08-.03,.17-.05,.27-.06-.01,.02-.02,.05-.02,.07,0,.06,0,.12,.04,.16,.06,.07,.17,.07,.25,.04,0,0,0,0,0,0,.03,.05,.08,.08,.13,.08,0,0,0,0,0,0,.03,.09,.08,.18,.19,.17,.09,0,.16-.07,.2-.14,.02,.05,.04,.11,.04,.16,0,0,0,0,0,0-.06,0-.11,.02-.17,.03,0,0-.01,0-.02,.01,0,0,0,.01,0,.02h0s0,.01,0,.02c0,0,.01,0,.02,0,.05-.02,.11-.03,.16-.03,0,.04-.01,.08-.02,.12-.05,0-.09,0-.14,.02,0,0-.01,0-.02,.01,0,0,0,.01,0,.02h0s0,.01,0,.01c0,0,0,0,.02,0,.04,0,.08-.01,.12-.02-.02,.05-.04,.09-.08,.13-.03,0-.07-.01-.1-.01,0,0-.01,0-.02,0,0,0,0,0-.01,.01h0s0,.01,0,.01c0,0,0,0,.01,0,.03,0,.05,0,.08,.01-.3,.33-.89,.36-1.23,.07h0ZM1.33,.14c.05-.03,.1-.06,.15-.06,.12-.02,.16,.05,.16,.16-.05,0-.11,0-.15,0,0,0-.02,0-.03,0-.03-.03-.07-.05-.12-.05,0,0,0,0,0-.01,0-.01-.01-.02-.02-.04h0Zm.02,.09c.07,0,.12,.05,.13,.11,0,.07-.05,.12-.11,.13-.07,0-.12-.05-.13-.11,0-.07,.05-.12,.11-.13h0Zm.16,.05c.09,0,.23,0,.25,.04,.03,.08-.07,.33-.21,.34-.08,0-.12-.07-.14-.14,.03,0,.06-.03,.09-.05,0,.01,.02,.02,.03,.02,.02,0,.04-.02,.04-.05,0-.02-.01-.04-.03-.04,0-.02,0-.03,0-.05,0-.02,0-.05-.02-.06h0Zm-.2-.09c-.02-.06-.06-.12-.11-.14-.08-.03-.21,.05-.24,.2-.02,.14,.11,.19,.23,.15,0,0,0-.02,0-.03,0-.02,0-.03,0-.05-.02,0-.03-.02-.03-.04,0-.02,.01-.05,.04-.05,.01,0,.02,0,.03,.01,.02-.02,.05-.04,.07-.05h0Zm-.32,.8c.05,0,.1,.02,.1,.05,0,.03-.04,.06-.09,.06-.05,0-.1-.02-.1-.05s.04-.06,.09-.06h0Z" fill="none" stroke="#ffffff" stroke-miterlimit="10" stroke-width=".01"/>
</svg>